<svg width="24" height="24" viewBox="0 0 24 24" fill="none" xmlns="http://www.w3.org/2000/svg">
<path d="M10.6814 8.52468L6.44349 12.7626C6.25904 12.947 6.04008 13.0933 5.79909 13.1932C5.5581 13.293 5.29981 13.3444 5.03896 13.3444C4.77812 13.3444 4.51983 13.293 4.27884 13.1932C4.03785 13.0933 3.81889 12.947 3.63444 12.7626C3.45 12.5781 3.30369 12.3592 3.20387 12.1182C3.10405 11.8772 3.05267 11.6189 3.05267 11.3581C3.05267 11.0972 3.10405 10.8389 3.20387 10.5979C3.30369 10.357 3.45 10.138 3.63444 9.95354L5.38997 8.19901C5.01747 8.57138 4.5123 8.78052 3.98559 8.78043C3.45889 8.78033 2.95379 8.57101 2.58142 8.19851C2.20905 7.82601 1.99991 7.32084 2 6.79413C2.00009 6.26743 2.20942 5.76233 2.58192 5.38996L5.38997 2.58191C5.57435 2.39746 5.79325 2.25114 6.03418 2.1513C6.27511 2.05145 6.53334 2.00004 6.79414 1.99999C7.05494 1.99994 7.31319 2.05127 7.55416 2.15103C7.79512 2.25079 8.01408 2.39703 8.19852 2.58141C8.38296 2.76579 8.52929 2.98469 8.62913 3.22562C8.72898 3.46655 8.78039 3.72478 8.78044 3.98558C8.78053 4.51229 8.57139 5.01746 8.19902 5.38996L9.95355 3.63443" stroke="black" stroke-width="2" stroke-linecap="round" stroke-linejoin="round"/>
<path d="M21.433 21.433L20.0429 20.0429" stroke="black" stroke-width="2" stroke-linecap="round" stroke-linejoin="round"/>
<path d="M3.95714 3.95712L2.56702 2.567" stroke="black" stroke-width="2" stroke-linecap="round" stroke-linejoin="round"/>
<path d="M21.4181 18.61C21.7906 18.2377 21.9999 17.7326 22 17.2059C22.0001 16.9451 21.9487 16.6868 21.849 16.4458C21.7492 16.2049 21.603 15.9859 21.4186 15.8015C21.2342 15.617 21.0153 15.4707 20.7744 15.3709C20.5335 15.271 20.2752 15.2196 20.0144 15.2196C19.7536 15.2195 19.4954 15.2708 19.2544 15.3706C19.0134 15.4704 18.7945 15.6166 18.61 15.801L20.3656 14.0464C20.7381 13.6739 20.9473 13.1687 20.9473 12.6419C20.9473 12.1151 20.7381 11.6099 20.3656 11.2374C19.9931 10.8649 19.4878 10.6556 18.961 10.6556C18.4342 10.6556 17.929 10.8649 17.5565 11.2374L11.2374 17.5565C11.053 17.741 10.9067 17.9599 10.8068 18.2009C10.707 18.4419 10.6556 18.7002 10.6556 18.961C10.6556 19.2219 10.707 19.4802 10.8068 19.7212C10.9067 19.9621 11.053 20.1811 11.2374 20.3656C11.4219 20.55 11.6408 20.6963 11.8818 20.7961C12.1228 20.896 12.3811 20.9473 12.6419 20.9473C12.9028 20.9473 13.1611 20.896 13.4021 20.7961C13.643 20.6963 13.862 20.55 14.0465 20.3656L15.801 18.61C15.4286 18.9825 15.2195 19.4877 15.2196 20.0144C15.2197 20.5411 15.429 21.0462 15.8015 21.4186C16.174 21.7909 16.6792 22.0001 17.2059 22C17.7326 21.9999 18.2377 21.7906 18.61 21.4181L21.4181 18.61Z" stroke="black" stroke-width="2" stroke-linecap="round" stroke-linejoin="round"/>
<path d="M14.3831 14.3831L9.61694 9.61691" stroke="black" stroke-width="2" stroke-linecap="round" stroke-linejoin="round"/>
<path d="M12.993 5.04938H18.9506" stroke="black" stroke-width="2" stroke-linecap="round" stroke-linejoin="round"/>
<path d="M15.9718 2.07053V8.02821" stroke="black" stroke-width="2" stroke-linecap="round" stroke-linejoin="round"/>
</svg>
